<svg xmlns="http://www.w3.org/2000/svg" width="800" height="800" viewBox="0 0 800 800" role="img" aria-labelledby="title"><title id="title">Organizador Loop</title><rect width="800" height="800" rx="56" fill="#E5EDFF"/><ellipse cx="400" cy="648" rx="260" ry="42" fill="#173027" opacity=".12"/><path d="M166 325h312c31 0 56 25 56 56v166c0 31-25 56-56 56H166c-31 0-56-25-56-56V381c0-31 25-56 56-56Z" fill="#3557F4"/><path d="M372 228h252c36 0 66 30 66 66v213c0 36-30 66-66 66H372c-36 0-66-30-66-66V294c0-36 30-66 66-66Z" fill="#173027"/><circle cx="512" cy="397" r="72" fill="none" stroke="#D8F45A" stroke-width="34"/><rect x="180" y="412" width="180" height="96" rx="48" fill="#FF623E"/></svg>
