<svg xmlns="http://www.w3.org/2000/svg" width="800" height="800" viewBox="0 0 800 800" role="img" aria-labelledby="title"><title id="title">Manta Norte</title><rect width="800" height="800" rx="56" fill="#E8EAF7"/><ellipse cx="400" cy="657" rx="260" ry="36" fill="#173027" opacity=".12"/><path d="M180 188h440v430H180z" fill="#3557F4"/><path d="m180 308 110-120 110 120 110-120 110 120v120L510 308 400 428 290 308 180 428Z" fill="#FF623E"/><path d="m180 548 110-120 110 120 110-120 110 120v70H180Z" fill="#D8F45A"/><path d="M196 618v64m28-64v64m28-64v64m296-64v64m28-64v64m28-64v64" stroke="#173027" stroke-width="12" stroke-linecap="round"/></svg>
